<svg id="Layer_1" data-name="Layer 1" xmlns="http://www.w3.org/2000/svg" xmlns:xlink="http://www.w3.org/1999/xlink" viewBox="0 0 400 172.83"><defs><style>.cls-1{fill:#b63626;}.cls-2{fill:#fff;}.cls-3{fill:url(#linear-gradient);}.cls-4{fill:url(#linear-gradient-2);}.cls-5{fill:url(#linear-gradient-3);}.cls-6{fill:url(#linear-gradient-4);}.cls-7{fill:url(#linear-gradient-5);}.cls-8{fill:url(#linear-gradient-6);}.cls-9{fill:url(#linear-gradient-7);}.cls-10{fill:url(#linear-gradient-8);}.cls-11{fill:url(#linear-gradient-9);}.cls-12{fill:url(#linear-gradient-10);}.cls-13{fill:url(#linear-gradient-11);}.cls-14{fill:url(#linear-gradient-12);}.cls-15{fill:url(#linear-gradient-13);}.cls-16{fill:url(#linear-gradient-14);}.cls-17{fill:url(#linear-gradient-15);}</style><linearGradient id="linear-gradient" x1="12.3" y1="51.56" x2="62.08" y2="51.56" gradientUnits="userSpaceOnUse"><stop offset="0" stop-color="#9d1d20"/><stop offset="0" stop-color="#b33525"/><stop offset="1" stop-color="#9d1d20"/></linearGradient><linearGradient id="linear-gradient-2" x1="16.89" y1="42.25" x2="32.68" y2="-1.14" gradientUnits="userSpaceOnUse"><stop offset="0" stop-color="#ffd79b"/><stop offset="0.11" stop-color="#fdc77a"/><stop offset="0.29" stop-color="#faaa3f"/><stop offset="0.4" stop-color="#f9a43e"/><stop offset="0.54" stop-color="#f6933a"/><stop offset="0.71" stop-color="#f17834"/><stop offset="0.89" stop-color="#eb522c"/><stop offset="1" stop-color="#e63626"/></linearGradient><linearGradient id="linear-gradient-3" x1="20.83" y1="80.1" x2="36.77" y2="36.3" gradientUnits="userSpaceOnUse"><stop offset="0" stop-color="#faaa3f"/><stop offset="0.46" stop-color="#e63a27"/><stop offset="1" stop-color="#78191f"/></linearGradient><linearGradient id="linear-gradient-4" x1="14.57" y1="77.57" x2="14.57" y2="39.84" gradientUnits="userSpaceOnUse"><stop offset="0" stop-color="#fff"/><stop offset="0.01" stop-color="#fff8ef"/><stop offset="0.05" stop-color="#fde3c0"/><stop offset="0.09" stop-color="#fcd299"/><stop offset="0.13" stop-color="#fbc378"/><stop offset="0.18" stop-color="#fbb85f"/><stop offset="0.22" stop-color="#fab04d"/><stop offset="0.27" stop-color="#faac42"/><stop offset="0.32" stop-color="#faaa3f"/><stop offset="0.54" stop-color="#f27934"/><stop offset="0.74" stop-color="#eb542d"/><stop offset="0.9" stop-color="#e73e28"/><stop offset="1" stop-color="#e63626"/></linearGradient><linearGradient id="linear-gradient-5" x1="62.08" y1="36.76" x2="26.18" y2="36.76" gradientUnits="userSpaceOnUse"><stop offset="0" stop-color="#fff"/><stop offset="0.01" stop-color="#fff8ef"/><stop offset="0.05" stop-color="#fde3c0"/><stop offset="0.09" stop-color="#fcd299"/><stop offset="0.13" stop-color="#fbc378"/><stop offset="0.18" stop-color="#fbb85f"/><stop offset="0.22" stop-color="#fab04d"/><stop offset="0.27" stop-color="#faac42"/><stop offset="0.32" stop-color="#faaa3f"/><stop offset="0.63" stop-color="#f06f32"/><stop offset="0.87" stop-color="#e94629"/><stop offset="1" stop-color="#e63626"/></linearGradient><linearGradient id="linear-gradient-6" x1="49.2" y1="5.09" x2="49.2" y2="42.88" gradientUnits="userSpaceOnUse"><stop offset="0" stop-color="#fff"/><stop offset="0.05" stop-color="#fee9ce"/><stop offset="0.12" stop-color="#fcd39c"/><stop offset="0.18" stop-color="#fbc173"/><stop offset="0.24" stop-color="#fbb457"/><stop offset="0.28" stop-color="#faad45"/><stop offset="0.32" stop-color="#faaa3f"/><stop offset="0.63" stop-color="#f06f32"/><stop offset="0.87" stop-color="#e94629"/><stop offset="1" stop-color="#e63626"/></linearGradient><linearGradient id="linear-gradient-7" x1="31.83" y1="77.57" x2="31.83" y2="39.84" xlink:href="#linear-gradient-5"/><linearGradient id="linear-gradient-8" x1="12.3" y1="131.59" x2="62.08" y2="131.59" xlink:href="#linear-gradient"/><linearGradient id="linear-gradient-9" x1="16.89" y1="107.05" x2="32.68" y2="63.67" xlink:href="#linear-gradient-2"/><linearGradient id="linear-gradient-10" x1="16.89" y1="107.05" x2="32.68" y2="63.67" gradientUnits="userSpaceOnUse"><stop offset="0" stop-color="#ffd79b"/><stop offset="0.14" stop-color="#faaa3f"/><stop offset="0.33" stop-color="#c34327"/><stop offset="1" stop-color="#cb3627"/></linearGradient><linearGradient id="linear-gradient-11" x1="20.83" y1="175.36" x2="36.77" y2="131.56" xlink:href="#linear-gradient-3"/><linearGradient id="linear-gradient-12" x1="14.57" y1="172.83" x2="14.57" y2="104.63" xlink:href="#linear-gradient-4"/><linearGradient id="linear-gradient-13" x1="62.08" y1="101.55" x2="26.18" y2="101.55" gradientUnits="userSpaceOnUse"><stop offset="0" stop-color="#fff"/><stop offset="0.02" stop-color="#fff8ef"/><stop offset="0.07" stop-color="#fde0ba"/><stop offset="0.13" stop-color="#fccd8e"/><stop offset="0.18" stop-color="#fbbe6c"/><stop offset="0.23" stop-color="#fbb353"/><stop offset="0.28" stop-color="#faac44"/><stop offset="0.32" stop-color="#faaa3f"/><stop offset="0.63" stop-color="#f06f32"/><stop offset="0.87" stop-color="#e94629"/><stop offset="1" stop-color="#e63626"/></linearGradient><linearGradient id="linear-gradient-14" x1="49.2" y1="69.88" x2="49.2" y2="138.14" xlink:href="#linear-gradient-6"/><linearGradient id="linear-gradient-15" x1="31.83" y1="172.83" x2="31.83" y2="135.1" gradientUnits="userSpaceOnUse"><stop offset="0" stop-color="#fff"/><stop offset="0.05" stop-color="#feead0"/><stop offset="0.12" stop-color="#fcd39d"/><stop offset="0.18" stop-color="#fbc174"/><stop offset="0.24" stop-color="#fbb557"/><stop offset="0.28" stop-color="#faad45"/><stop offset="0.32" stop-color="#faaa3f"/><stop offset="0.63" stop-color="#f06f32"/><stop offset="0.87" stop-color="#e94629"/><stop offset="1" stop-color="#e63626"/></linearGradient></defs><title>logo</title><path class="cls-1" d="M209.21,74v26.27c0,8.08-3.38,11.53-11.3,11.53H184.55V74H172.16v50.43h25.75c15.5,0,23.69-8.35,23.69-24.16V74Z" transform="translate(-12.3 -12.77)"/><path class="cls-1" d="M259.72,74H245.31c-11.3,0-17.52,6.35-17.52,17.87v14.7c0,11.52,6.22,17.86,17.52,17.86h14.41c11.29,0,17.51-6.34,17.51-17.86V91.89C277.23,80.37,271,74,259.72,74ZM240.18,91.89c0-3.86,1.34-5.23,5.13-5.23h14.41c3.78,0,5.12,1.37,5.12,5.23v14.7c0,3.86-1.34,5.23-5.12,5.23H245.31c-3.79,0-5.13-1.37-5.13-5.23Z" transform="translate(-12.3 -12.77)"/><path class="cls-1" d="M378.32,86.66h34V74h-34c-10,0-15.46,5.6-15.46,15.77s5.49,15.77,15.46,15.77h18.52c2.41,0,3.07.67,3.07,3.13s-.66,3.13-3.07,3.13h-34v12.63h34c10,0,15.46-5.6,15.46-15.76s-5.49-15.77-15.46-15.77H378.32c-2.41,0-3.07-.67-3.07-3.13S375.91,86.66,378.32,86.66Z" transform="translate(-12.3 -12.77)"/><path class="cls-1" d="M320.37,111.72H307.11c-7.92,0-11.3-3.45-11.3-11.53V73.93H283.42v26.26c0,15.81,8.19,24.17,23.69,24.17h13.26Z" transform="translate(-12.3 -12.77)"/><polygon class="cls-1" points="344.37 61.16 326.34 61.16 314.09 61.16 296.06 61.16 296.06 73.9 314.09 73.9 314.09 111.58 326.34 111.58 326.34 73.9 344.37 73.9 344.37 61.16"/><path class="cls-2" d="M142.26,74H116.51v50.43H128.9V86.66h13.36c7.92,0,11.3,3.45,11.3,11.53v26.26h12.38V98.19C165.94,82.38,157.75,74,142.26,74Z" transform="translate(-12.3 -12.77)"/><rect class="cls-2" x="85.59" y="61.25" width="12.39" height="50.43"/><rect class="cls-2" x="85.59" y="42.74" width="12.37" height="12.37"/><path class="cls-3" d="M47.78,12.77,12.3,48.25l0,0h0V85.11l13.88,5.23h0l35.9-35.83V17.86Zm.41,36-22,22V53.94h.06L48.19,32V48.76Z" transform="translate(-12.3 -12.77)"/><polygon class="cls-4" points="0 35.48 35.48 0 49.78 5.09 13.94 41.17 0 35.48"/><polygon class="cls-5" points="13.88 77.57 49.78 41.73 35.9 35.98 13.88 57.99 13.88 77.57"/><polygon class="cls-6" points="15.26 39.84 15.26 76.19 13.88 77.57 13.88 41.17 15.26 39.84"/><path class="cls-7" d="M26.18,53.94v1.71L62.06,19.76l0-1.9Z" transform="translate(-12.3 -12.77)"/><polygon class="cls-8" points="48.63 6.24 48.63 42.88 49.78 41.73 49.78 5.09 48.63 6.24"/><polygon class="cls-9" points="13.88 77.57 13.88 75.69 49.78 39.84 49.78 41.73 13.88 77.57"/><path class="cls-10" d="M47.78,77.58,12.3,113.05l0,0h0v67.28l13.88,5.24h0l35.9-35.84V82.66ZM48.19,144l-22,22V118.75h.06l22-22V144Z" transform="translate(-12.3 -12.77)"/><polygon class="cls-11" points="0 100.28 35.48 64.8 49.78 69.89 13.94 105.97 0 100.28"/><polygon class="cls-12" points="0 100.28 35.48 64.8 49.78 69.89 13.94 105.97 0 100.28"/><polygon class="cls-13" points="13.88 172.83 49.78 137 35.9 131.25 13.88 153.26 13.88 172.83"/><polygon class="cls-14" points="15.26 104.63 15.26 171.45 13.88 172.83 13.88 105.97 15.26 104.63"/><path class="cls-15" d="M26.18,118.74v1.71l35.88-35.9,0-1.89Z" transform="translate(-12.3 -12.77)"/><polygon class="cls-16" points="48.63 71.04 48.63 138.14 49.78 137 49.78 69.88 48.63 71.04"/><polygon class="cls-17" points="13.88 172.83 13.88 170.95 49.78 135.1 49.78 137 13.88 172.83"/></svg>